<svg width="7" height="11" viewBox="0 0 7 11" fill="none" xmlns="http://www.w3.org/2000/svg">
<path d="M0.23291 4.01364L3.33046 0.256296C3.41851 0.148943 3.58255 0.148943 3.67181 0.256296L6.76936 4.01364C6.88757 4.15718 6.78625 4.3755 6.59928 4.3755H0.402985C0.216023 4.3755 0.113495 4.15838 0.23291 4.01364Z" fill="white"/>
<path d="M0.360668 4.14151C0.436659 4.04984 0.51265 3.95816 0.587435 3.86529C0.77681 3.6349 0.966185 3.40572 1.15677 3.17533C1.40283 2.8774 1.64769 2.57947 1.89376 2.28153C2.14224 1.98119 2.38951 1.67963 2.63799 1.37929C2.83098 1.14528 3.02277 0.912486 3.21577 0.678481C3.29658 0.580778 3.37498 0.480663 3.45821 0.385372C3.46183 0.380547 3.48957 0.355217 3.4751 0.366073C3.45821 0.379341 3.51249 0.350392 3.48837 0.358836C3.47269 0.364867 3.53541 0.358836 3.49319 0.358836C3.52938 0.358836 3.46907 0.357629 3.50526 0.358836C3.50767 0.358836 3.533 0.367279 3.51249 0.360042C3.48957 0.351598 3.51973 0.363661 3.51852 0.363661C3.52094 0.363661 3.54265 0.380547 3.52576 0.367279C3.51008 0.355217 3.53059 0.372104 3.53179 0.374516C3.53541 0.378135 3.53903 0.38296 3.54265 0.386579C3.54868 0.393816 3.55471 0.401053 3.56074 0.40829C3.60175 0.457745 3.64276 0.507199 3.68257 0.556654C3.85144 0.76171 4.02031 0.966765 4.18918 1.17182C4.4268 1.4601 4.66442 1.74839 4.90205 2.03667C5.15414 2.34305 5.40745 2.64943 5.65955 2.9558C5.86943 3.21031 6.07931 3.46482 6.28919 3.71933C6.40016 3.85322 6.50992 3.98832 6.62089 4.12221C6.62572 4.12824 6.63175 4.13668 6.63778 4.14271C6.63899 4.14271 6.60763 4.10291 6.62331 4.12462C6.62693 4.13065 6.63054 4.13789 6.63537 4.14392C6.63296 4.14151 6.62813 4.11497 6.63175 4.13306C6.63296 4.1391 6.63537 4.14633 6.63778 4.15357C6.64622 4.18131 6.64261 4.13065 6.63657 4.1596C6.63537 4.16443 6.63175 4.18614 6.63657 4.16201C6.64381 4.13427 6.63416 4.16804 6.63296 4.17046C6.6221 4.18614 6.63778 4.16081 6.63899 4.15839C6.63537 4.16443 6.63296 4.17046 6.62934 4.17649C6.62572 4.18252 6.6221 4.18734 6.61848 4.19338C6.6221 4.18734 6.62813 4.16925 6.62572 4.18252C6.62451 4.18614 6.61366 4.19337 6.61124 4.19699C6.61607 4.19217 6.62693 4.17649 6.62089 4.18855C6.61848 4.19217 6.60642 4.19579 6.6028 4.1982C6.61366 4.19096 6.62692 4.18855 6.60642 4.19458C6.57626 4.20423 6.62934 4.19699 6.59556 4.19579C6.59436 4.19579 6.59436 4.19579 6.59315 4.19579C6.58833 4.19579 6.58471 4.19579 6.57988 4.19579C6.563 4.19579 6.5449 4.19579 6.52802 4.19579C6.35191 4.19579 6.1746 4.19579 5.99849 4.19579C5.69453 4.19579 5.38935 4.19579 5.08539 4.19579C4.70423 4.19579 4.32427 4.19579 3.94311 4.19579C3.54265 4.19579 3.14098 4.19579 2.74052 4.19579C2.37383 4.19579 2.00835 4.19579 1.64166 4.19579C1.36544 4.19579 1.08801 4.19579 0.81179 4.19579C0.679107 4.19579 0.54763 4.19699 0.414947 4.19579C0.411329 4.19579 0.40771 4.19579 0.404091 4.19579C0.402885 4.19579 0.402885 4.19579 0.401679 4.19579C0.399267 4.19579 0.401679 4.19458 0.393235 4.19579C0.373936 4.1982 0.399267 4.19699 0.404091 4.1982C0.400473 4.19699 0.384792 4.19579 0.383586 4.19338C0.379967 4.18614 0.383586 4.19217 0.394442 4.19941C0.390823 4.19699 0.378761 4.19338 0.376349 4.18976C0.370318 4.17769 0.381173 4.19337 0.385998 4.1982C0.383586 4.19458 0.37273 4.18855 0.371524 4.18373C0.369111 4.17046 0.375142 4.18855 0.378761 4.19458C0.375142 4.18855 0.371524 4.18373 0.367905 4.17769C0.364287 4.17166 0.361874 4.16563 0.358255 4.1596C0.359462 4.16201 0.375142 4.18734 0.364287 4.17166C0.360668 4.16684 0.361874 4.15839 0.359462 4.15236C0.359462 4.15236 0.36308 4.18855 0.361874 4.16684C0.361874 4.16081 0.36308 4.15236 0.361874 4.14633C0.36308 4.14995 0.352224 4.1789 0.359462 4.16081C0.361874 4.15357 0.375142 4.11738 0.365493 4.13548C0.355843 4.15478 0.383586 4.11135 0.387204 4.10653C0.447515 4.02933 0.399267 3.90388 0.322069 3.85925C0.229191 3.80498 0.133901 3.84599 0.0747963 3.92439C-0.0241129 4.05345 -0.0241128 4.25007 0.0699715 4.38154C0.149581 4.49252 0.266584 4.55403 0.404091 4.55765C0.437865 4.55886 0.470433 4.55765 0.504207 4.55765C0.704438 4.55765 0.904668 4.55765 1.10369 4.55765C1.43058 4.55765 1.75746 4.55765 2.08313 4.55765C2.47877 4.55765 2.87441 4.55765 3.27004 4.55765C3.67895 4.55765 4.08665 4.55765 4.49555 4.55765C4.8538 4.55765 5.21325 4.55765 5.57149 4.55765C5.8248 4.55765 6.07689 4.55765 6.3302 4.55765C6.45082 4.55765 6.60763 4.57816 6.72463 4.53714C6.88747 4.47925 7.00567 4.32244 6.99964 4.14633C6.99603 4.04381 6.95501 3.96058 6.89229 3.88338C6.86214 3.84599 6.83077 3.80859 6.79941 3.7712C6.64019 3.57821 6.48218 3.38521 6.32296 3.19343C6.08292 2.90273 5.84289 2.61083 5.60285 2.32013C5.34472 2.00652 5.08539 1.6929 4.82726 1.37929C4.60894 1.11513 4.39061 0.849763 4.17229 0.585603C4.05408 0.442064 3.93587 0.298525 3.81766 0.156193C3.70428 0.0186847 3.51732 -0.0404195 3.34845 0.0295406C3.26522 0.0645207 3.21094 0.120006 3.15666 0.186348C3.02157 0.350392 2.88647 0.514437 2.75137 0.678481C2.52461 0.953497 2.29663 1.22972 2.06987 1.50473C1.80933 1.82076 1.54878 2.13679 1.28824 2.45282C1.05665 2.73386 0.825059 3.0137 0.594673 3.29475C0.451134 3.46844 0.307595 3.64214 0.165262 3.81583C0.144756 3.83996 0.125457 3.86408 0.104951 3.8882C0.0434348 3.96299 0.0313727 4.07034 0.104951 4.14392C0.168881 4.20544 0.297945 4.2175 0.360668 4.14151Z" fill="white"/>
<path d="M0.23291 6.37407L3.33046 10.1314C3.41851 10.2388 3.58255 10.2388 3.67181 10.1314L6.76936 6.37407C6.88757 6.23053 6.78625 6.01221 6.59928 6.01221H0.402985C0.216023 6.01221 0.113495 6.22932 0.23291 6.37407Z" fill="white"/>
<path d="M0.104618 6.50185C0.183022 6.59714 0.261425 6.69243 0.341035 6.78772C0.537647 7.02655 0.735466 7.26538 0.932078 7.50421C1.18538 7.81179 1.43869 8.11817 1.69199 8.42576C1.94288 8.72972 2.19257 9.03368 2.44346 9.33644C2.63163 9.56442 2.8198 9.79239 3.00796 10.0216C3.1129 10.1494 3.21905 10.3219 3.38551 10.3738C3.54955 10.4244 3.71722 10.3569 3.82216 10.2302C3.86558 10.1772 3.909 10.1253 3.95243 10.0722C4.12974 9.85632 4.30826 9.64041 4.48557 9.4257C4.73164 9.12656 4.97891 8.82742 5.22498 8.52828C5.48069 8.21829 5.73641 7.90708 5.99213 7.59709C6.19839 7.3474 6.40465 7.09772 6.61091 6.84683C6.705 6.73224 6.80029 6.62006 6.89316 6.50426C6.95951 6.42224 7.00414 6.32936 6.99931 6.22201C6.99207 6.0459 6.87025 5.88548 6.69776 5.84326C6.64227 5.82999 6.5892 5.8312 6.53251 5.8312C6.35158 5.8312 6.17064 5.8312 5.98851 5.8312C5.67369 5.8312 5.35887 5.8312 5.04405 5.8312C4.65323 5.8312 4.26242 5.8312 3.87282 5.8312C3.46512 5.8312 3.05621 5.8312 2.64851 5.8312C2.27941 5.8312 1.91031 5.8312 1.54121 5.8312C1.27344 5.8312 1.00445 5.8312 0.736672 5.8312C0.625701 5.8312 0.514729 5.82758 0.403758 5.8312C0.265044 5.83482 0.145629 5.89875 0.0672256 6.01334C-0.0232401 6.14481 -0.0220338 6.33781 0.0768754 6.46566C0.13598 6.54286 0.232476 6.58387 0.324148 6.5308C0.400139 6.48617 0.449594 6.36072 0.389284 6.28353C0.38084 6.27146 0.373603 6.25699 0.363953 6.24613C0.366366 6.24855 0.37119 6.27508 0.367572 6.25699C0.366366 6.25096 0.363953 6.24372 0.361541 6.23648C0.353097 6.20874 0.356716 6.2594 0.362747 6.23045C0.363953 6.22563 0.367572 6.20392 0.362747 6.22804C0.35551 6.25578 0.365159 6.22201 0.366366 6.2196C0.377221 6.20392 0.361541 6.22925 0.360335 6.23166C0.363953 6.22563 0.366366 6.2196 0.369984 6.21357C0.373603 6.20754 0.377221 6.20271 0.38084 6.19668C0.377221 6.20271 0.37119 6.2208 0.373603 6.20754C0.374809 6.20392 0.385665 6.19668 0.388077 6.19306C0.383253 6.19789 0.372397 6.21357 0.378428 6.2015C0.38084 6.19789 0.392902 6.19427 0.396521 6.19186C0.385665 6.19909 0.372397 6.2015 0.392902 6.19547C0.423057 6.18582 0.369984 6.19306 0.403758 6.19427C0.404964 6.19427 0.404964 6.19427 0.406171 6.19427C0.409789 6.19427 0.414614 6.19427 0.418233 6.19427C0.464069 6.19427 0.511111 6.19427 0.556947 6.19427C0.770446 6.19427 0.985151 6.19427 1.19865 6.19427C1.52674 6.19427 1.85483 6.19427 2.18292 6.19427C2.57373 6.19427 2.96454 6.19427 3.35535 6.19427C3.7534 6.19427 4.15024 6.19427 4.54829 6.19427C4.89689 6.19427 5.24669 6.19427 5.59528 6.19427C5.84135 6.19427 6.08742 6.19427 6.33348 6.19427C6.39983 6.19427 6.46737 6.19427 6.53371 6.19427C6.5506 6.19427 6.56749 6.19427 6.58317 6.19427C6.58679 6.19427 6.59041 6.19427 6.59523 6.19427C6.59644 6.19427 6.59644 6.19427 6.59764 6.19427C6.60247 6.19427 6.6085 6.19547 6.61332 6.19427C6.57231 6.19547 6.63142 6.20271 6.61332 6.19547C6.58558 6.18462 6.64589 6.21719 6.62056 6.19909C6.59523 6.181 6.6471 6.22804 6.62659 6.20392C6.61091 6.18582 6.63383 6.2196 6.63745 6.22442C6.6483 6.2389 6.63262 6.21598 6.63262 6.21236C6.63383 6.2196 6.63624 6.23166 6.63986 6.23769C6.63986 6.23769 6.63624 6.2015 6.63745 6.22322C6.63745 6.22925 6.63624 6.23769 6.63745 6.24372C6.63624 6.2401 6.6471 6.21115 6.63986 6.22925C6.63745 6.23528 6.63624 6.24372 6.63504 6.24975C6.63383 6.25458 6.62418 6.27267 6.63383 6.25458C6.64469 6.23407 6.63021 6.25578 6.63021 6.2582C6.63021 6.26543 6.60609 6.28353 6.63142 6.2582C6.69776 6.19306 6.64348 6.24372 6.64107 6.24613C6.63383 6.25217 6.629 6.26181 6.62297 6.26905C6.58317 6.3173 6.54216 6.36676 6.50235 6.415C6.33348 6.61885 6.16582 6.82391 5.99695 7.02776C5.75812 7.31725 5.51929 7.60674 5.28046 7.89743C5.02836 8.20381 4.77506 8.51019 4.52296 8.81657C4.31308 9.07108 4.1032 9.32559 3.89332 9.5801C3.78235 9.71399 3.67259 9.84908 3.56161 9.98297C3.55558 9.99021 3.55076 9.99624 3.54473 10.0035C3.53749 10.0119 3.53025 10.0192 3.52181 10.0276C3.54231 10.0083 3.51819 10.0288 3.50613 10.0348C3.53387 10.0216 3.50492 10.0324 3.49165 10.0348C3.49407 10.0348 3.52302 10.0312 3.50251 10.0312C3.47477 10.0312 3.53267 10.0336 3.50492 10.0336C3.49769 10.0336 3.48924 10.03 3.48321 10.0276C3.48562 10.0276 3.51095 10.0397 3.49045 10.0312C3.48321 10.0276 3.47718 10.024 3.46994 10.0192C3.47356 10.0216 3.48924 10.0373 3.47597 10.0228C3.46994 10.0167 3.46391 10.0107 3.45909 10.0035C3.43496 9.97573 3.41204 9.94558 3.38792 9.91663C3.24318 9.74052 3.09722 9.56442 2.95248 9.38831C2.7245 9.11209 2.49653 8.83466 2.26856 8.55844C2.01405 8.24965 1.75954 7.94086 1.50503 7.63207C1.28067 7.35947 1.05632 7.08807 0.831962 6.81547C0.694454 6.6478 0.556947 6.48134 0.418233 6.31368C0.398933 6.29076 0.38084 6.26785 0.361541 6.24493C0.298818 6.16894 0.169754 6.181 0.105824 6.24493C0.0298333 6.31971 0.0418953 6.42586 0.104618 6.50185Z" fill="white"/>
</svg>
